{"title":"Madaari (2016) 720p DvDScr x264 AAC -DDR","uid":15384401,"size":682188216,"categoryP":"video","categoryS":"hd___movies","magnet":"?xt=urn:btih:31a5193fd907d89e9a7ffeecf7193db2e8177251&amp;dn=Madaari+%282016%29+720p+DvDScr+x264+AAC+-DDR&amp;tr=udp%3A%2F%2Ftracker.leechers-paradise.org%3A6969&amp;tr=udp%3A%2F%2Fzer0day.ch%3A1337&amp;tr=udp%3A%2F%2Fopen.demonii.com%3A1337&amp;tr=udp%3A%2F%2Ftracker.coppersurfer.tk%3A6969&amp;tr=udp%3A%2F%2Fexodus.desync.com%3A6969","seeders":29,"leechers":5,"uploader":"SaM","files":3,"time":1469273862,"description":"- BollywooD MoviE -\r\n**- Madaari -**\r\n- 2016 -\r\n** Tiny 720p DesiSCR Rip / x264 / AAC **\r\n \nhttp://extraimago.com/image/aACY \nhttp://extraimago.com/image/aACC \nhttp://extraimago.com/image/aACB \nhttp://extraimago.com/image/aAC4 \nhttp://extraimago.com/image/aACe \nhttp://extraimago.com/image/aACZ \nhttp://extraimago.com/image/aACK \nhttp://extraimago.com/image/aACJ \nhttp://extraimago.com/image/aAC0 \nhttp://extraimago.com/image/aACz \nhttp://extraimago.com/image/aACU \nhttp://extraimago.com/image/aACM \nhttp://extraimago.com/image/aAC9\r\n\r\n[ Specs ]\r\nGeneral\r\nSource = DesiSCR @ DUS (Thanks Sher bhai)\r\nFormat : Matroska\r\nFile size : 648 MiB\r\nDuration : 2h 13mn\r\nOverall bit rate : 681 Kbps\r\nEncoded date : UTC 2016-07-22 18:23:24\r\nVideo\r\nFormat : AVC\r\nFormat/Info : Advanced Video Codec\r\nFormat profile :   \r\nFormat settings, CABAC : Yes\r\nFormat settings, ReFrames : 5 frames\r\nCodec ID : V_MPEG4/ISO/AVC\r\nDuration : 2h 13mn\r\nBit rate : 550 Kbps\r\nWidth : 1 280 pixels\r\nHeight : 544 pixels\r\nDisplay aspect ratio : 2.35:1\r\nFrame rate mode : Constant\r\nFrame rate : 24.975 (25000/1001) fps\r\nColor space : YUV\r\nChroma subsampling : 4:2:0\r\nBit depth : 8 bits\r\nScan type : Progressive\r\nBits/(Pixel*Frame) : 0.032\r\nStream size : 524 MiB (81%)\r\nDefault : Yes\r\nForced : No\r\nColor range : Limited\r\nColor primaries : BT.709\r\n\r\n\r\nAudio\r\nFormat : AAC\r\nFormat/Info : Advanced Audio Codec\r\nFormat profile : LC\r\nCodec ID : A_AAC\r\nDuration : 2h 13mn\r\nBit rate : 128 Kbps\r\nChannel(s) : 2 channels\r\nChannel positions : Front: L R\r\nSampling rate : 48.0 KHz\r\nFrame rate : 46.875 fps (1024 spf)\r\nCompression mode : Lossy\r\nStream size : 122 MiB (19%)\r\nDefault : Yes\r\nForced : No\r\n\r\n\r\nChapters: None on source\r\nSAMPLE : Included\r\n\r\nA DDR Exclusive Release...!","torrent":{"xt":"urn:btih:31a5193fd907d89e9a7ffeecf7193db2e8177251","amp;dn":"Madaari+%282016%29+720p+DvDScr+x264+AAC+-DDR","amp;tr":["udp%3A%2F%2Ftracker.leechers-paradise.org%3A6969","udp%3A%2F%2Fzer0day.ch%3A1337","udp%3A%2F%2Fopen.demonii.com%3A1337","udp%3A%2F%2Ftracker.coppersurfer.tk%3A6969","udp%3A%2F%2Fexodus.desync.com%3A6969"],"infoHash":"31a5193fd907d89e9a7ffeecf7193db2e8177251","infoHashBuffer":{"type":"Buffer","data":[49,165,25,63,217,7,216,158,154,127,254,236,247,25,61,178,232,23,114,81]},"announce":[],"urlList":[]}}